# xmcd
#
# Track frame offsets:
#	150
#	9437
#	26088
#	37441
#	50394
#	62060
#	77536
#	91482
#	102567
#	114880
#	129425
#
# Disc length: 1901 seconds
#
# Revision: 1
# Processed by: cddbd v1.5.2PL0 Copyright (c) Steve Scherf et al.
# Submitted via: audiograbber 1.83.01
#
DISCID=8b076b0b
DTITLE=Dolly Parton - My Tennessee Mountain Home
DYEAR=1900
DGENRE=
TTITLE0=The Letter
TTITLE1=I Remember
TTITLE2=Old Black Kettle
TTITLE3=Daddy's Working Boots
TTITLE4=Dr. Robert F. Thomas
TTITLE5=In The Good Old Days (When Times Were Bad)
TTITLE6=My Tennessee Mountain Home
TTITLE7=The Wrong Direction Home
TTITLE8=Back Home
TTITLE9=The Better Part Of Life
TTITLE10=Down On Music Row
EXTD=
EXTT0=
EXTT1=
EXTT2=
EXTT3=
EXTT4=
EXTT5=
EXTT6=
EXTT7=
EXTT8=
EXTT9=
EXTT10=
PLAYORDER=
